<svg width="150" height="150" viewBox="0 0 150 150" fill="none" xmlns="http://www.w3.org/2000/svg">
<circle cx="75" cy="75" r="75" fill="white"/>
<circle cx="75" cy="75" r="75" fill="#0FACB3" fill-opacity="0.5"/>
<path d="M75 31.25C79.144 31.25 83.1183 32.8962 86.0485 35.8265C88.9788 38.7567 90.625 42.731 90.625 46.875V50H59.375V46.875C59.375 42.731 61.0212 38.7567 63.9515 35.8265C66.8817 32.8962 70.856 31.25 75 31.25ZM96.875 50V46.875C96.875 41.0734 94.5703 35.5094 90.468 31.407C86.3656 27.3047 80.8016 25 75 25C69.1984 25 63.6344 27.3047 59.532 31.407C55.4297 35.5094 53.125 41.0734 53.125 46.875V50H31.25V112.5C31.25 115.815 32.567 118.995 34.9112 121.339C37.2554 123.683 40.4348 125 43.75 125H106.25C109.565 125 112.745 123.683 115.089 121.339C117.433 118.995 118.75 115.815 118.75 112.5V50H96.875ZM37.5 56.25H112.5V112.5C112.5 114.158 111.842 115.747 110.669 116.919C109.497 118.092 107.908 118.75 106.25 118.75H43.75C42.0924 118.75 40.5027 118.092 39.3306 116.919C38.1585 115.747 37.5 114.158 37.5 112.5V56.25Z" fill="black"/>
</svg>
