<svg width="21" height="21" viewBox="0 0 21 21" fill="none" xmlns="http://www.w3.org/2000/svg">
<path d="M20.4609 10.0787C20.4609 8.10876 19.8768 6.18302 18.7824 4.545C17.688 2.90699 16.1325 1.63027 14.3125 0.876276C12.4925 0.122282 10.4898 -0.0751259 8.55766 0.309013C6.62549 0.693153 4.85062 1.64159 3.45746 3.0344C2.06429 4.4272 1.1154 6.20184 0.730773 8.1339C0.346142 10.066 0.543039 12.0687 1.29657 13.8889C2.0501 15.709 3.32642 17.2649 4.96416 18.3597C6.60189 19.4545 8.52749 20.0392 10.4975 20.0397H10.5L10.5025 20.0396C13.143 20.0359 15.6742 18.9852 17.541 17.1179C19.4079 15.2506 20.4579 12.7192 20.4609 10.0787ZM11.0859 18.8478V12.2273H13.625C13.7804 12.2273 13.9294 12.1655 14.0393 12.0557C14.1492 11.9458 14.2109 11.7967 14.2109 11.6413C14.2109 11.4859 14.1492 11.3369 14.0393 11.227C13.9294 11.1171 13.7804 11.0554 13.625 11.0554H11.0859V8.51634C11.0865 8.0503 11.2718 7.60349 11.6014 7.27395C11.9309 6.94441 12.3777 6.75904 12.8438 6.75852H14.4063C14.5617 6.75852 14.7107 6.69679 14.8206 6.58691C14.9305 6.47702 14.9922 6.32799 14.9922 6.17259C14.9922 6.01719 14.9305 5.86815 14.8206 5.75827C14.7107 5.64838 14.5617 5.58665 14.4063 5.58665H12.8438C12.067 5.58753 11.3224 5.89647 10.7731 6.44571C10.2239 6.99494 9.91495 7.73961 9.91407 8.51634V11.0554H7.375C7.2196 11.0554 7.07057 11.1171 6.96068 11.227C6.8508 11.3369 6.78907 11.4859 6.78907 11.6413C6.78907 11.7967 6.8508 11.9458 6.96068 12.0557C7.07057 12.1655 7.2196 12.2273 7.375 12.2273H9.91407V18.8478C7.63889 18.6958 5.51185 17.6655 3.98214 15.9745C2.45242 14.2835 1.63978 12.0641 1.71583 9.78514C1.79188 7.50616 2.75067 5.34594 4.38972 3.76068C6.02876 2.17542 8.21976 1.28921 10.5 1.28921C12.7803 1.28921 14.9712 2.17542 16.6103 3.76068C18.2493 5.34594 19.2081 7.50616 19.2842 9.78514C19.3602 12.0641 18.5476 14.2835 17.0179 15.9745C15.4882 17.6655 13.3611 18.6958 11.0859 18.8478Z" fill="white"/>
</svg>
