<svg width="21" height="20" viewBox="0 0 21 20" fill="none" xmlns="http://www.w3.org/2000/svg">
<path d="M10.5 5.58655C9.61153 5.58655 8.74301 5.85001 8.00427 6.34362C7.26554 6.83723 6.68976 7.53881 6.34976 8.35965C6.00976 9.18049 5.9208 10.0837 6.09413 10.9551C6.26746 11.8265 6.6953 12.6269 7.32354 13.2552C7.95179 13.8834 8.75222 14.3113 9.62362 14.4846C10.495 14.6579 11.3982 14.569 12.2191 14.229C13.0399 13.889 13.7415 13.3132 14.2351 12.5745C14.7287 11.8357 14.9922 10.9672 14.9922 10.0787C14.9908 8.88775 14.5171 7.74592 13.675 6.90376C12.8328 6.06161 11.691 5.58789 10.5 5.58655ZM10.5 13.399C9.8433 13.399 9.20136 13.2043 8.65533 12.8395C8.10931 12.4746 7.68374 11.9561 7.43243 11.3494C7.18112 10.7427 7.11537 10.0751 7.24349 9.43097C7.3716 8.7869 7.68783 8.19527 8.15218 7.73092C8.61654 7.26657 9.20816 6.95034 9.85224 6.82222C10.4963 6.69411 11.1639 6.75986 11.7706 7.01117C12.3773 7.26247 12.8959 7.68805 13.2607 8.23407C13.6256 8.78009 13.8203 9.42204 13.8203 10.0787C13.8193 10.959 13.4692 11.803 12.8467 12.4254C12.2242 13.0479 11.3803 13.398 10.5 13.399ZM14.7969 0.508423H6.20312C4.80501 0.510025 3.46463 1.06613 2.47601 2.05475C1.4874 3.04336 0.93129 4.38375 0.929688 5.78186V14.3756C0.93129 15.7737 1.4874 17.1141 2.47601 18.1027C3.46463 19.0913 4.80501 19.6474 6.20312 19.649H14.7969C16.195 19.6474 17.5354 19.0913 18.524 18.1027C19.5126 17.1141 20.0687 15.7737 20.0703 14.3756V5.78186C20.0687 4.38375 19.5126 3.04336 18.524 2.05475C17.5354 1.06613 16.195 0.510025 14.7969 0.508423ZM18.8984 14.3756C18.8972 15.463 18.4647 16.5056 17.6958 17.2745C16.9268 18.0434 15.8843 18.476 14.7969 18.4772H6.20312C5.1157 18.476 4.07315 18.0434 3.30422 17.2745C2.5353 16.5056 2.10278 15.463 2.10156 14.3756V5.78186C2.10278 4.69443 2.5353 3.65189 3.30422 2.88296C4.07315 2.11403 5.1157 1.68151 6.20312 1.6803H14.7969C15.8843 1.68151 16.9268 2.11403 17.6958 2.88296C18.4647 3.65189 18.8972 4.69443 18.8984 5.78186V14.3756ZM16.5547 5.00061C16.5547 5.19376 16.4974 5.38256 16.3901 5.54316C16.2828 5.70375 16.1303 5.82892 15.9518 5.90284C15.7734 5.97675 15.577 5.99609 15.3876 5.95841C15.1982 5.92073 15.0242 5.82772 14.8876 5.69114C14.751 5.55457 14.658 5.38056 14.6203 5.19113C14.5826 5.00169 14.602 4.80534 14.6759 4.6269C14.7498 4.44845 14.875 4.29593 15.0356 4.18863C15.1962 4.08132 15.385 4.02405 15.5781 4.02405C15.837 4.02436 16.0852 4.12735 16.2683 4.31042C16.4514 4.49349 16.5544 4.7417 16.5547 5.00061Z" fill="white"/>
</svg>
