<svg width="13" height="12" viewBox="0 0 13 12" fill="none" xmlns="http://www.w3.org/2000/svg">
<path d="M4.92911 0.5C5.80996 0.499983 6.67233 0.722918 7.4139 1.14235C8.15547 1.56179 8.74512 2.16012 9.11288 2.86636C9.48065 3.5726 9.61109 4.3571 9.48874 5.12678C9.36639 5.89647 8.99638 6.61904 8.42261 7.20875L12.4204 10.7362L11.9196 11.1781L7.92111 7.65C7.35718 8.07551 6.68506 8.37446 5.96198 8.52138C5.2389 8.66831 4.48629 8.65886 3.76824 8.49383C3.05019 8.32881 2.38799 8.0131 1.83802 7.5736C1.28805 7.1341 0.866611 6.58383 0.6096 5.96964C0.352589 5.35546 0.267618 4.69557 0.361924 4.04617C0.45623 3.39677 0.727019 2.7771 1.15123 2.23994C1.57544 1.70278 2.1405 1.26404 2.79829 0.961087C3.45608 0.658136 4.1871 0.49995 4.92911 0.5ZM4.92911 1.125C3.89587 1.125 2.90495 1.48716 2.17434 2.13182C1.44373 2.77648 1.03327 3.65082 1.03327 4.5625C1.03327 5.47418 1.44373 6.34852 2.17434 6.99318C2.90495 7.63784 3.89587 8 4.92911 8C5.96235 8 6.95327 7.63784 7.68388 6.99318C8.41449 6.34852 8.82494 5.47418 8.82494 4.5625C8.82494 3.65082 8.41449 2.77648 7.68388 2.13182C6.95327 1.48716 5.96235 1.125 4.92911 1.125Z" fill="black"/>
</svg>
