<svg width="29" height="19" viewBox="0 0 29 19" fill="none" xmlns="http://www.w3.org/2000/svg">
<path d="M0.0837402 2.71266C0.0837402 1.764 0.623175 1.25247 1.70204 1.17807L5.85941 1.20597C6.13843 1.20597 6.32444 1.34548 6.41745 1.62449C6.84527 3.01958 7.32425 4.22401 7.85439 5.23778C8.38452 6.25154 9.07742 7.41877 9.93307 8.73945C10.0075 8.90686 10.1284 8.99057 10.2958 8.99057C10.426 8.99057 10.5283 8.92546 10.6027 8.79525L10.6864 8.48833L10.7143 3.66132C10.7143 3.3265 10.6353 3.10329 10.4772 2.99168C10.319 2.88007 10.0261 2.79637 9.59825 2.74057C9.26343 2.68476 9.09602 2.48015 9.09602 2.12673C9.09602 2.05232 9.10532 1.99652 9.12392 1.95932C9.51454 0.750238 10.6306 0.1457 12.4721 0.1457L14.0346 0.117798C14.7415 0.117798 15.3274 0.294509 15.7924 0.647932C16.2575 1.00135 16.49 1.55939 16.49 2.32204V8.65574C16.6202 8.74875 16.7411 8.79525 16.8527 8.79525C17.1317 8.79525 17.3735 8.62784 17.5782 8.29302C19.6243 5.42844 20.7311 3.51252 20.8985 2.54525C20.8985 2.52665 20.9171 2.48015 20.9543 2.40574C21.0845 2.12673 21.2984 1.88491 21.596 1.6803C21.8936 1.47568 22.1541 1.33618 22.3773 1.26177C22.4517 1.22457 22.5354 1.20597 22.6284 1.20597H26.9532L27.2322 1.23387C27.6042 1.23387 27.8925 1.41058 28.0971 1.764C28.1715 1.87561 28.2227 1.99652 28.2506 2.12673C28.2785 2.25693 28.2971 2.38714 28.3064 2.51735C28.3157 2.64756 28.3203 2.72196 28.3203 2.74057V2.93588C28.1901 3.69853 27.86 4.51233 27.3298 5.37728C26.7997 6.24224 26.1254 7.17695 25.307 8.18141C24.4885 9.18588 23.977 9.84622 23.7724 10.1624C23.6049 10.3857 23.5212 10.5903 23.5212 10.7763C23.5212 10.9251 23.5956 11.0925 23.7445 11.2785L27.8181 16.4124C28.0413 16.7101 28.1529 17.0356 28.1529 17.389C28.1529 17.8168 27.9855 18.1703 27.6507 18.4493C27.3159 18.7283 26.916 18.8864 26.4509 18.9236L25.9766 18.9515H21.7355C21.7169 18.9515 21.6797 18.9562 21.6239 18.9655C21.5681 18.9748 21.5309 18.9794 21.5123 18.9794C21.1031 18.9794 20.7218 18.8027 20.3683 18.4493C20.2381 18.3005 19.3639 17.203 17.7456 15.1569C17.6526 15.0267 17.5224 14.9057 17.3549 14.7941C17.2805 15.0918 17.1829 15.5196 17.062 16.0776C16.9411 16.6357 16.8527 17.0356 16.7969 17.2774L16.7132 17.7517C16.5272 18.4028 16.1366 18.7934 15.5413 18.9236L15.1507 18.9515H12.4163C10.8724 18.9515 9.33318 18.2447 7.79858 16.831C6.26399 15.4173 4.88285 13.5897 3.65517 11.3483C2.42749 9.10682 1.28352 6.49801 0.223249 3.52182C0.130243 3.28 0.0837402 3.01028 0.0837402 2.71266ZM16.8527 9.93923C16.4621 9.93923 16.1087 9.83227 15.7924 9.61836C15.4762 9.40444 15.3181 9.11147 15.3181 8.73945V2.32204C15.3181 1.95002 15.2251 1.68495 15.0391 1.52684C14.8531 1.36873 14.5276 1.28967 14.0625 1.28967L12.4721 1.34548C11.6723 1.34548 11.0677 1.48499 10.6585 1.764C11.477 2.15463 11.8862 2.78707 11.8862 3.66132V8.57204C11.849 9.03707 11.663 9.42304 11.3282 9.72996C10.9933 10.0369 10.6213 10.1903 10.2121 10.1903C9.65405 10.1903 9.22622 9.92062 8.92861 9.38119C7.47771 7.18625 6.39884 5.10292 5.692 3.13119L5.44088 2.40574L1.72995 2.37784C1.48813 2.37784 1.35327 2.39179 1.32537 2.4197C1.29747 2.4476 1.28352 2.52665 1.28352 2.65686C1.28352 2.82427 1.30212 3.00098 1.33932 3.18699L1.92526 4.74949C3.48776 8.78595 5.18512 11.9668 7.01733 14.2919C8.84955 16.6171 10.6492 17.7796 12.4163 17.7796H15.2065C15.3181 17.7796 15.4018 17.7471 15.4576 17.682C15.5134 17.6169 15.5599 17.4913 15.5971 17.3053L15.6529 17.0263L16.1831 14.5709C16.3319 14.2361 16.4621 14.0129 16.5737 13.9013C16.7783 13.6967 17.0201 13.5944 17.2991 13.5944C17.7456 13.5944 18.2013 13.8641 18.6663 14.4035L21.038 17.4169C21.1868 17.6587 21.3449 17.7796 21.5123 17.7796H26.1161C26.6741 17.7796 26.9532 17.6401 26.9532 17.3611C26.9532 17.2681 26.9253 17.1751 26.8695 17.0821L22.8237 12.0319C22.5075 11.6412 22.3494 11.2227 22.3494 10.7763C22.3494 10.3299 22.4982 9.90202 22.7958 9.4928C23.0376 9.12077 23.5073 8.50228 24.2048 7.63733C24.9024 6.77237 25.5116 5.96322 26.0324 5.20987C26.5532 4.45653 26.8974 3.77293 27.0648 3.15909L27.1485 2.79637C27.1299 2.75917 27.1206 2.69871 27.1206 2.61501C27.1206 2.5313 27.1113 2.46155 27.0927 2.40574H22.7121C22.4331 2.51735 22.2099 2.68476 22.0424 2.90798L21.875 3.43811C21.41 4.72159 20.1916 6.70262 18.2199 9.38119C17.8293 9.75321 17.3735 9.93923 16.8527 9.93923Z" fill="white"/>
</svg>
